<?xml version="1.0" encoding="utf-8"?>
<svg width="48px" height="48px" viewBox="0 0 48 48" version="1.1" xmlns:xlink="http://www.w3.org/1999/xlink" xmlns="http://www.w3.org/2000/svg">
  <defs>
    <path d="M0 0L48 0L48 48L0 48L0 0Z" id="path_1" />
    <clipPath id="mask_1">
      <use xlink:href="#path_1" />
    </clipPath>
  </defs>
  <g id="Spotify-icon-3">
    <path d="M0 0L48 0L48 48L0 48L0 0Z" id="Background" fill="none" fill-rule="evenodd" stroke="none" />
    <g clip-path="url(#mask_1)">
      <path d="M25.912 3.58401C20.756 3.70801 18.537 4.42501 15.025 5.59701C13.641 6.05901 12.815 6.75801 11.604 7.57201C10.166 8.53801 8.417 10.486 7.438 11.915C3.279 17.988 2.455 26.288 5.66 32.915C7.54 36.801 10.691 40.11 14.61 41.92C18.585 43.756 22.187 44.636 26.539 44.152C30.729 43.686 31.486 43.279 34.628 41.359C35.495 40.829 37.108 39.572 37.77 38.801C38.573 37.867 40.66 35.706 41.32 34.666C43.648 31 44.335 28.278 44.292 22.649C44.278 20.871 43.767 18.762 43.196 17.078C42.033 13.646 40.904 11.103 37.99 8.95001C34.779 6.57701 32.829 4.37601 25.888 3.57501" id="Shape" fill="#71C598" fill-rule="evenodd" stroke="none" />
      <path d="M24.212 44.785C21.021 44.785 17.966 44.021 14.4 42.374C10.481 40.563 7.217 37.282 5.21 33.133C1.964 26.422 2.677 17.984 7.026 11.633C8.025 10.174 9.823 8.16799 11.326 7.15699C11.561 6.99899 11.782 6.845 11.995 6.696C12.903 6.06299 13.687 5.517 14.868 5.123C18.289 3.981 20.558 3.225 25.779 3.087C25.833 3.075 25.89 3.073 25.946 3.078C32.106 3.789 34.408 5.566 37.073 7.62399C37.466 7.927 37.866 8.236 38.288 8.54799C41.429 10.869 42.584 13.712 43.671 16.918C44.083 18.135 44.776 20.497 44.793 22.646C44.836 28.314 44.124 31.186 41.743 34.935C41.253 35.708 40.062 37.014 39.105 38.064C38.723 38.484 38.381 38.858 38.149 39.128C37.416 39.982 35.729 41.273 34.889 41.786C31.684 43.745 30.857 44.177 26.593 44.649C25.785 44.739 24.994 44.785 24.212 44.785L24.212 44.785ZM25.931 4.084C25.929 4.084 25.927 4.084 25.924 4.084C20.767 4.209 18.546 4.95 15.184 6.072C14.14 6.42 13.445 6.904 12.566 7.516C12.349 7.66799 12.123 7.825 11.883 7.987C10.485 8.927 8.796 10.816 7.851 12.197C3.701 18.258 3.018 26.303 6.11 32.697C8.016 36.638 11.109 39.753 14.819 41.466C19.083 43.437 22.57 44.09 26.483 43.655C30.545 43.205 31.259 42.833 34.368 40.932C35.239 40.399 36.782 39.184 37.391 38.475C37.627 38.2 37.976 37.818 38.367 37.389C39.248 36.422 40.455 35.098 40.899 34.399C43.185 30.796 43.835 28.162 43.793 22.653C43.781 21.185 43.392 19.213 42.724 17.238C41.656 14.087 40.607 11.505 37.695 9.35199C37.267 9.03599 36.861 8.72199 36.463 8.41499C33.929 6.46 31.739 4.771 25.931 4.084L25.931 4.084Z" id="Shape" fill="#010101" fill-rule="evenodd" stroke="none" />
      <path d="M22.929 27.838C20.213 27.7 20.587 27.776 17.76 28.031C16.795 28.118 15.793 28.284 14.832 28.403C14.185 28.483 13.506 28.576 12.986 28.97C12.466 29.363 12.195 30.164 12.589 30.683C12.953 31.162 13.66 31.232 14.256 31.152C18.177 30.625 19.765 30.47 23.258 30.515C24.784 30.535 27.764 31.284 29.144 31.935C30.078 32.375 31.875 33.247 32.406 33.429C33.103 33.667 33.607 33.03 33.769 32.492C33.917 32.001 33.446 31.504 33.13 31.24C30.712 29.217 26.082 28.1 22.94 27.834" id="Shape" fill="#D6E5E5" fill-rule="evenodd" stroke="none" />
      <path d="M24.471 24.527C23.037 24.12 21.906 24.239 20.668 24.267C20.012 24.282 18.074 24.445 17.43 24.574C15.868 24.886 15.433 24.994 13.871 25.306C13.511 25.378 13.143 25.45 12.778 25.404C12.184 25.329 11.644 24.916 11.415 24.362C11.337 24.174 11.294 23.961 11.355 23.767C11.435 23.513 11.428 22.916 12.238 22.614C15.424 21.429 17.03 21.49 19.754 21.29C23.252 21.034 25.211 21.683 27.89 22.216C29.641 22.564 31.475 23.317 33.147 23.944C34.426 24.423 35.556 24.825 35.816 25.987C35.898 26.355 35.792 27.051 35.541 27.333C35.366 27.529 35.206 27.753 34.947 27.796C34.117 27.935 33.344 27.408 32.562 27.099C32.027 26.888 31.102 26.55 30.564 26.344C28.84 25.684 27.441 25.165 24.427 24.525" id="Shape" fill="#D6E5E5" fill-rule="evenodd" stroke="none" />
      <path d="M24.634 18.143C20.895 17.571 17.008 17.986 13.335 18.892C12.882 19.004 12.425 19.127 11.959 19.115C11.493 19.103 11.007 18.933 10.727 18.56C10.487 18.24 10.302 17.967 10.254 17.57C10.218 17.27 10.314 16.806 10.449 16.536C10.558 16.319 10.761 16.166 10.964 16.032C12.019 15.335 13.263 14.927 14.526 14.862C15.275 14.824 16.104 14.53 16.85 14.461C17.528 14.398 19.526 14.183 20.207 14.21C23.89 14.36 23.614 14.06 27.302 14.521C27.913 14.597 29.027 14.895 29.631 15.013C30.693 15.22 31.045 15.287 32.064 15.651C33.056 16.005 33.609 16.088 34.143 16.336C34.747 16.617 35.619 16.935 36.204 17.254C37.573 18 37.774 17.949 38.603 18.836C39.327 19.61 38.852 20.827 38.461 21.2C38.238 21.413 38.037 21.499 37.743 21.592C36.746 21.91 35.674 21.514 34.714 21.097C32.466 20.12 30.236 18.981 27.808 18.651C26.839 18.52 26.079 18.318 24.658 18.143" id="Shape" fill="#D6E5E5" fill-rule="evenodd" stroke="none" />
      <path d="M32.703 33.979C32.552 33.979 32.397 33.953 32.244 33.9C31.789 33.746 30.549 33.156 29.553 32.682L28.931 32.386C27.553 31.737 24.634 31.032 23.252 31.014C19.874 30.971 18.313 31.11 14.322 31.646C13.384 31.776 12.606 31.532 12.191 30.985C11.958 30.678 11.861 30.283 11.917 29.871C11.986 29.369 12.273 28.883 12.684 28.571C13.327 28.086 14.127 27.986 14.77 27.907C15.112 27.865 15.458 27.816 15.807 27.767C16.445 27.678 17.087 27.589 17.715 27.533C18.321 27.478 18.779 27.432 19.152 27.394C20.521 27.256 20.779 27.229 22.885 27.335C22.917 27.332 22.95 27.332 22.983 27.334C26.45 27.627 31.031 28.829 33.453 30.855C34.139 31.428 34.422 32.061 34.249 32.634C34.089 33.165 33.741 33.611 33.319 33.827C33.122 33.928 32.915 33.979 32.703 33.979L32.703 33.979ZM22.171 30.006C22.516 30.006 22.879 30.009 23.264 30.014C24.913 30.035 27.992 30.838 29.356 31.482L29.982 31.779C30.904 32.217 32.166 32.818 32.567 32.954C32.674 32.991 32.765 32.987 32.861 32.938C33.039 32.847 33.212 32.609 33.291 32.346C33.336 32.195 33.139 31.897 32.811 31.622C30.585 29.761 26.166 28.618 22.969 28.336C22.948 28.338 22.926 28.339 22.904 28.337C20.81 28.232 20.603 28.252 19.253 28.389C18.877 28.427 18.416 28.474 17.805 28.529C17.194 28.584 16.567 28.672 15.946 28.758C15.592 28.807 15.24 28.856 14.894 28.899C14.342 28.967 13.716 29.045 13.288 29.369C13.091 29.518 12.941 29.769 12.909 30.008C12.888 30.158 12.915 30.284 12.988 30.38C13.268 30.747 13.978 30.682 14.191 30.656C17.783 30.172 19.436 30.006 22.171 30.006L22.171 30.006Z" id="Shape" fill="#010101" fill-rule="evenodd" stroke="none" />
      <path d="M34.669 28.319C34.031 28.319 33.448 28.048 32.923 27.804C32.741 27.72 32.561 27.636 32.378 27.564C32.062 27.44 31.607 27.27 31.179 27.11L30.385 26.811C28.78 26.197 27.394 25.665 24.323 25.015C24.277 25.005 24.234 24.99 24.194 24.968C23.115 24.686 22.205 24.716 21.243 24.749L20.679 24.766C20.031 24.781 18.132 24.943 17.527 25.063C16.76 25.216 16.265 25.321 15.775 25.424C15.267 25.53 14.764 25.637 13.969 25.795C13.594 25.871 13.166 25.957 12.716 25.899C11.942 25.801 11.251 25.272 10.954 24.551C10.815 24.215 10.79 23.9 10.88 23.614C10.974 23.186 11.124 22.494 12.066 22.144C14.87 21.101 16.528 20.996 18.627 20.863C18.974 20.842 19.335 20.818 19.719 20.79C22.659 20.577 24.574 20.991 26.603 21.433C27.05 21.53 27.508 21.629 27.99 21.725C29.518 22.029 31.066 22.617 32.563 23.186L33.325 23.475C34.676 23.981 35.992 24.474 36.305 25.876C36.42 26.387 36.287 27.247 35.913 27.665C35.677 27.938 35.434 28.22 35.03 28.287C34.907 28.31 34.787 28.319 34.669 28.319L34.669 28.319ZM24.667 24.066C27.719 24.719 29.123 25.256 30.743 25.878L31.53 26.174C31.964 26.336 32.425 26.508 32.746 26.635C32.945 26.713 33.145 26.806 33.345 26.898C33.882 27.148 34.389 27.381 34.866 27.303C34.914 27.295 35.024 27.167 35.096 27.083L35.167 27.002C35.28 26.874 35.388 26.359 35.329 26.098C35.142 25.265 34.342 24.926 33.051 24.442L32.207 24.124C30.749 23.569 29.241 22.995 27.794 22.708C27.307 22.611 26.844 22.511 26.391 22.412C24.349 21.97 22.587 21.587 19.792 21.791C19.404 21.819 19.04 21.842 18.689 21.864C16.593 21.997 15.079 22.093 12.413 23.085C11.985 23.244 11.936 23.471 11.879 23.733C11.864 23.804 11.849 23.867 11.833 23.919C11.827 23.939 11.812 24.014 11.877 24.172C12.037 24.561 12.424 24.857 12.84 24.909C13.127 24.942 13.456 24.88 13.772 24.816C14.563 24.659 15.063 24.553 15.568 24.447C16.062 24.343 16.559 24.238 17.331 24.084C17.998 23.951 19.974 23.783 20.656 23.768L21.209 23.751C22.244 23.716 23.316 23.681 24.607 24.046C24.627 24.051 24.647 24.059 24.667 24.066L24.667 24.066Z" id="Shape" fill="#010101" fill-rule="evenodd" stroke="none" />
      <path d="M36.972 22.208C36.113 22.208 35.27 21.882 34.517 21.556C34.156 21.399 33.795 21.238 33.434 21.077C31.604 20.26 29.711 19.415 27.743 19.147C27.328 19.09 26.95 19.022 26.544 18.948C26.011 18.849 25.426 18.743 24.63 18.644C24.607 18.644 24.583 18.642 24.56 18.638C21.24 18.128 17.505 18.379 13.456 19.378L13.353 19.403C12.906 19.513 12.447 19.633 11.947 19.615C11.266 19.597 10.676 19.323 10.329 18.86C10.054 18.493 9.822 18.146 9.76 17.63C9.714 17.248 9.82 16.682 10.005 16.312C10.167 15.99 10.443 15.779 10.692 15.615C11.828 14.866 13.146 14.433 14.503 14.364C14.862 14.345 15.253 14.259 15.668 14.167C16.042 14.085 16.429 13.999 16.807 13.964L17.257 13.921C18.459 13.804 19.679 13.692 20.232 13.712C21.616 13.77 22.451 13.76 23.122 13.755C24.283 13.744 25.047 13.736 27.368 14.026C27.78 14.078 28.39 14.219 28.929 14.344C29.231 14.414 29.515 14.48 29.731 14.523C30.807 14.732 31.195 14.807 32.237 15.18C32.679 15.337 33.032 15.44 33.334 15.528C33.71 15.638 34.035 15.732 34.359 15.883C34.582 15.987 34.843 16.095 35.112 16.207C35.58 16.402 36.063 16.604 36.449 16.815C36.783 16.997 37.047 17.13 37.266 17.243C37.969 17.599 38.289 17.763 38.974 18.493C39.92 19.505 39.37 21.028 38.811 21.561C38.527 21.832 38.262 21.953 37.901 22.068C37.589 22.167 37.279 22.208 36.972 22.208L36.972 22.208ZM24.673 17.644C24.688 17.645 24.704 17.646 24.719 17.648C25.555 17.75 26.166 17.862 26.723 17.963C27.114 18.035 27.477 18.102 27.876 18.156C29.987 18.442 31.945 19.316 33.84 20.163C34.198 20.322 34.556 20.482 34.914 20.638C35.769 21.011 36.753 21.382 37.592 21.116C37.84 21.037 37.967 20.981 38.116 20.839C38.345 20.621 38.74 19.713 38.239 19.178C37.676 18.576 37.474 18.474 36.808 18.136C36.581 18.021 36.31 17.882 35.965 17.695C35.624 17.508 35.165 17.317 34.722 17.132C34.44 17.015 34.166 16.901 33.933 16.792C33.677 16.673 33.4 16.592 33.049 16.49C32.732 16.397 32.361 16.289 31.896 16.123C30.924 15.776 30.584 15.71 29.574 15.513C29.308 15.461 29.013 15.393 28.698 15.32C28.184 15.201 27.601 15.065 27.24 15.02C24.985 14.739 24.245 14.745 23.128 14.756C22.445 14.762 21.597 14.771 20.187 14.713C19.661 14.685 18.158 14.837 17.352 14.917L16.897 14.961C16.582 14.99 16.242 15.065 15.882 15.145C15.445 15.242 14.995 15.341 14.552 15.364C13.373 15.425 12.228 15.801 11.24 16.452C11.101 16.544 10.952 16.652 10.896 16.764C10.798 16.958 10.728 17.324 10.75 17.514C10.78 17.765 10.891 17.949 11.126 18.265C11.285 18.477 11.601 18.61 11.97 18.619C12.338 18.644 12.711 18.536 13.109 18.436L13.213 18.411C17.379 17.38 21.234 17.123 24.673 17.644L24.673 17.644Z" id="Shape" fill="#010101" fill-rule="evenodd" stroke="none" />
    </g>
  </g>
</svg>